HIERARCHY
ROOT Hips
{
 OFFSET 0.000000 0.000000 0.000000
 CHANNELS 6 Xposition Yposition Zposition Yrotation Xrotation Zrotation
 JOINT Chest
 {
  OFFSET 0.000000 9.585900 0.002600
  CHANNELS 3 Yrotation Xrotation Zrotation
  JOINT Chest2
  {
   OFFSET 0.000000 9.601200 -0.005300
   CHANNELS 3 Yrotation Xrotation Zrotation
   JOINT Chest3
   {
    OFFSET 0.000000 9.561800 0.000000
    CHANNELS 3 Yrotation Xrotation Zrotation
    JOINT Chest4
    {
     OFFSET 0.000000 9.552100 0.000000
     CHANNELS 3 Yrotation Xrotation Zrotation
     JOINT Neck
     {
      OFFSET 0.000000 14.453000 0.000000
      CHANNELS 3 Yrotation Xrotation Zrotation
      JOINT Head
      {
       OFFSET 0.000000 8.936500 -0.011300
       CHANNELS 3 Yrotation Xrotation Zrotation
       End Site
       {
        OFFSET 0.000000 17.073600 -0.006000
       }
      }
     }
     JOINT RightCollar
     {
      OFFSET -2.921100 9.558500 0.000000
      CHANNELS 3 Yrotation Xrotation Zrotation
      JOINT RightShoulder
      {
       OFFSET -13.519700 0.000000 0.000000
       CHANNELS 3 Yrotation Xrotation Zrotation
       JOINT RightElbow
       {
        OFFSET 0.000000 -29.696600 0.000000
        CHANNELS 3 Yrotation Xrotation Zrotation
        JOINT RightWrist
        {
         OFFSET 0.000000 -24.004700 0.000000
         CHANNELS 3 Yrotation Xrotation Zrotation
         End Site
         {
          OFFSET 0.000000 -17.728500 0.000000
         }
        }
       }
      }
     }
     JOINT LeftCollar
     {
      OFFSET 2.921100 9.558500 0.000000
      CHANNELS 3 Yrotation Xrotation Zrotation
      JOINT LeftShoulder
      {
       OFFSET 13.519700 0.000000 0.000000
       CHANNELS 3 Yrotation Xrotation Zrotation
       JOINT LeftElbow
       {
        OFFSET 0.000000 -29.696600 0.000000
        CHANNELS 3 Yrotation Xrotation Zrotation
        JOINT LeftWrist
        {
         OFFSET 0.000000 -24.004700 0.000000
         CHANNELS 3 Yrotation Xrotation Zrotation
         End Site
         {
          OFFSET 0.000000 -17.728500 0.000000
         }
        }
       }
      }
     }
    }
   }
  }
 }
 JOINT RightHip
 {
  OFFSET -7.771700 -0.012900 -0.001300
  CHANNELS 3 Yrotation Xrotation Zrotation
  JOINT RightKnee
  {
   OFFSET 0.000000 -40.869800 0.001200
   CHANNELS 3 Yrotation Xrotation Zrotation
   JOINT RightAnkle
   {
    OFFSET 0.000000 -39.717900 0.002100
    CHANNELS 3 Yrotation Xrotation Zrotation
    JOINT RightToe
    {
     OFFSET 0.000000 -4.965400 11.033500
     CHANNELS 3 Yrotation Xrotation Zrotation
     End Site
     {
      OFFSET 0.000000 -1.423100 5.872300
     }
    }
   }
  }
 }
 JOINT LeftHip
 {
  OFFSET 7.771700 -0.012900 -0.001300
  CHANNELS 3 Yrotation Xrotation Zrotation
  JOINT LeftKnee
  {
   OFFSET 0.000000 -40.869800 0.001200
   CHANNELS 3 Yrotation Xrotation Zrotation
   JOINT LeftAnkle
   {
    OFFSET 0.000000 -39.717900 0.002100
    CHANNELS 3 Yrotation Xrotation Zrotation
    JOINT LeftToe
    {
     OFFSET 0.000000 -4.965400 11.033500
     CHANNELS 3 Yrotation Xrotation Zrotation
     End Site
     {
      OFFSET 0.000000 -1.423100 5.872300
     }
    }
   }
  }
 }
}
MOTION
Frames: 9
Frame Time: 0.008333
-16.797901 58.161931 13.599048 172.672748 -48.321379 -3.091533 5.106133 21.742553 4.149767 2.641574 12.496344 2.103558 3.408429 15.626372 2.747406 2.653762 12.513759 2.108158 4.958403 18.199833 4.548884 7.608780 -2.090144 6.752089 4.160313 1.332648 0.387460 4.723498 -21.651687 -6.529784 -32.817103 -47.821161 70.194120 -1.495693 -3.660477 -39.600813 -9.211945 2.049387 0.761851 3.657119 -28.760657 0.067865 76.735894 -56.956335 -100.077392 1.978643 -4.859772 13.584189 3.932374 -23.582793 0.483078 -33.363362 72.774667 -36.919333 6.021889 -12.942926 11.140929 -0.010563 -0.080490 0.020470 -1.131751 -20.675781 10.279869 85.581216 84.117173 85.744764 -0.213701 -22.264720 -15.766241 0.014187 0.016530 0.014162
-16.798439 58.162602 13.588582 172.682308 -48.274582 -3.075138 5.102691 21.749255 4.141465 2.657319 12.532947 2.120728 3.384000 15.562649 2.721000 2.661954 12.522473 2.109843 4.956065 18.188186 4.544256 7.618356 -2.095767 6.745248 4.148972 1.259746 0.335950 4.942509 -21.615061 -6.459848 -31.842593 -47.573859 68.999850 -1.519769 -3.580413 -39.505760 -9.278549 2.018331 0.799918 3.605668 -28.919786 -0.090760 75.996617 -55.943368 -99.489560 2.015134 -5.175911 13.661053 3.936613 -23.628413 0.450474 -33.456991 72.793493 -37.010824 6.033042 -12.970048 11.139681 -0.021924 -0.082624 0.016121 -1.113820 -20.720797 10.258795 85.612468 84.125854 85.786103 -0.214253 -22.270334 -15.766128 0.018005 0.012362 0.016720
-16.800114 58.159220 13.580479 172.670981 -48.195530 -3.040076 5.104670 21.715874 4.129124 2.659199 12.527657 2.116277 3.382398 15.558252 2.716322 2.668334 12.514765 2.107160 4.945569 18.173103 4.539974 7.621835 -2.120616 6.728413 4.130206 1.219518 0.312331 5.168638 -21.599539 -6.440286 -30.848947 -47.367300 67.800316 -1.511827 -3.495855 -39.399813 -9.311260 1.994339 0.810615 3.499858 -29.086794 -0.222416 75.458334 -55.335685 -98.884637 1.875777 -5.506460 13.848110 3.954094 -23.706785 0.409021 -33.497652 72.805944 -37.049437 6.039352 -12.990741 11.138937 -0.008025 -0.075632 0.013263 -1.075483 -20.800176 10.234688 85.738648 84.132545 85.925975 -0.220211 -22.291865 -15.765344 0.022989 0.014442 0.021297
-16.801806 58.157307 13.570114 172.658611 -48.128522 -3.004465 5.106406 21.695499 4.114147 2.666408 12.520230 2.115645 3.406592 15.580659 2.727338 2.644371 12.472299 2.092900 4.929984 18.158356 4.537594 7.619105 -2.130278 6.724049 4.113304 1.187677 0.289388 5.372733 -21.587738 -6.431171 -29.822181 -47.171157 66.596174 -1.473805 -3.420150 -39.296435 -9.338425 1.978988 0.819895 3.365022 -29.260490 -0.343373 75.195178 -55.252352 -98.283488 1.590533 -5.801628 14.172965 3.974338 -23.775195 0.358539 -33.510805 72.825378 -37.055036 6.046287 -13.002641 11.137354 -0.030528 -0.075654 0.004984 -1.033550 -20.867939 10.205178 85.804239 84.141319 86.011971 -0.222177 -22.300653 -15.767108 0.025453 0.009763 0.024764
-16.801589 58.156121 13.558705 172.651213 -48.067630 -2.985109 5.123951 21.699278 4.129917 2.660510 12.494080 2.102848 3.408332 15.572979 2.723684 2.629043 12.447929 2.084893 4.940943 18.161537 4.535722 7.602039 -2.148886 6.725265 4.115453 1.129673 0.198277 5.426003 -21.545995 -6.337634 -28.705514 -46.963331 65.432449 -1.406750 -3.368535 -39.209047 -9.357135 1.982272 0.835292 3.205851 -29.446059 -0.452945 75.239417 -55.693785 -97.727455 1.172807 -6.001573 14.623300 3.984161 -23.835512 0.335522 -33.525329 72.832315 -37.068664 6.051870 -13.004328 11.133934 -0.029077 -0.078349 0.003603 -0.999442 -20.928638 10.188079 85.854660 84.147144 86.083837 -0.224734 -22.309823 -15.765252 0.024495 0.011145 0.021141
-16.803581 58.154552 13.546589 172.653000 -48.005560 -2.960806 5.114003 21.661729 4.107839 2.672077 12.512001 2.112221 3.397642 15.548709 2.712328 2.641422 12.456084 2.086373 4.930136 18.145592 4.530353 7.571731 -2.201203 6.706653 4.092299 1.092164 0.173046 5.597224 -21.554121 -6.341262 -27.629917 -46.719694 64.240944 -1.313430 -3.351805 -39.145866 -9.392346 1.964137 0.855072 3.023051 -29.631368 -0.540857 75.593544 -56.611500 -97.260096 0.666842 -6.067537 15.152803 3.990014 -23.897835 0.294485 -33.552214 72.850465 -37.094216 6.051622 -13.014572 11.129218 -0.033405 -0.080022 0.002022 -0.962870 -20.989702 10.156806 85.831757 84.152896 86.086532 -0.231223 -22.317998 -15.762907 0.029869 0.013845 0.021515
-16.804088 58.153209 13.534100 172.652570 -47.946936 -2.945045 5.123762 21.649730 4.115320 2.670281 12.509132 2.105742 3.386624 15.522245 2.702751 2.663584 12.480079 2.090984 4.906978 18.113233 4.522686 7.548641 -2.231901 6.695831 4.047489 1.017816 0.113031 5.718986 -21.555854 -6.314727 -26.515653 -46.402499 63.071039 -1.180080 -3.404060 -39.106220 -9.426898 1.925316 0.866103 2.796660 -29.811777 -0.593161 76.212049 -57.898802 -96.879370 0.116452 -6.008090 15.671489 3.990261 -23.957151 0.269928 -33.572774 72.870682 -37.116693 6.056169 -13.023315 11.119002 -0.025294 -0.085305 0.005126 -0.929517 -21.047582 10.136776 85.899417 84.158717 86.179629 -0.238790 -22.331709 -15.758691 0.037360 0.013485 0.019180
-16.804691 58.151147 13.521928 172.641218 -47.884881 -2.922186 5.135558 21.639185 4.118348 2.670853 12.491239 2.096304 3.420916 15.557987 2.716777 2.626039 12.424654 2.078708 4.904467 18.109293 4.517183 7.525505 -2.262378 6.684565 4.021053 0.967246 0.056308 5.770949 -21.549264 -6.276840 -25.322468 -45.989449 61.895186 -0.997410 -3.559330 -39.083956 -9.444467 1.911886 0.883116 2.541913 -29.987683 -0.638002 77.004820 -59.400320 -96.552387 -0.446637 -5.874350 16.083829 3.994803 -24.024099 0.247805 -33.620687 72.885802 -37.172578 6.063858 -13.028759 11.117073 -0.027707 -0.085956 0.002088 -0.893273 -21.108963 10.118291 86.065127 84.150863 86.363996 -0.246845 -22.352813 -15.759507 0.032059 0.016102 0.019901
-16.806824 58.150107 13.508324 172.641915 -47.832840 -2.898878 5.140616 21.639475 4.109782 2.658371 12.451655 2.082594 3.438656 15.580782 2.727045 2.636187 12.417716 2.072298 4.897603 18.099771 4.508274 7.496145 -2.293893 6.691078 3.977429 0.905315 0.015816 5.783077 -21.528848 -6.236174 -24.090253 -45.518668 60.704439 -0.790597 -3.781648 -39.077865 -9.498179 1.886120 0.914131 2.268439 -30.159515 -0.682681 77.887787 -60.986763 -96.281551 -0.945575 -5.731028 16.337899 3.995353 -24.083275 0.216132 -33.715861 72.911756 -37.276161 6.075771 -13.048317 11.116610 -0.023025 -0.095065 0.003867 -0.863865 -21.159402 10.088708 86.079486 84.151788 86.397287 -0.251823 -22.356433 -15.759761 0.033520 0.014326 0.020992
